ply
format ascii 1.0
comment VCGLIB generated
element vertex 120
property float x
property float y
property float z
property float nx
property float ny
property float nz
property float texture_u
property float texture_v
element face 232
property list uchar int vertex_indices
end_header
0.1882419 0.07222488 -0.9231894 0.3700924 -0.4660631 -0.8036273 0.000000 0.594121
0.3587496 -0.006344625 -0.3447239 0.4437177 -0.8678568 0.2234707 0.313297 0.679375
0.1882419 0.08499913 -0.9231894 0.2599582 0.0916311 -0.9612625 0.000000 0.594121
0.3587493 0.04599146 -0.4718041 0.6883762 0.7022722 0.1815269 0.244471 0.679375
0.2330588 -0.006344914 0.6051503 0.7485526 -0.5463635 0.3757072 0.827750 0.616529
0.2330586 0.04599146 0.6051507 0.8282555 0.502162 0.2486488 0.827750 0.616529
0.9021983 -0.2789381 0.0376479 -0.6296734 -0.6386215 0.4423506 0.520390 0.951099
0.902198 -0.2266017 -0.08943236 -0.5249182 0.8442075 0.1085108 0.451563 0.951099
0.1882419 0.08499913 -0.9231894 0 0 0 0.000000 0.594121
0.3587493 0.04599146 -0.4718041 0.4483562 0.893855 5.007124e-07 0.244471 0.679375
0.902198 -0.2266017 -0.08943236 0.4483562 0.893855 5.007125e-07 0.451563 0.951099
0.1468157 0.1418571 -0.9231894 0.3108447 0.589643 -0.7454507 0.000000 0.573408
0.1609086 0.2789381 -0.3447236 0.4480454 0.8881124 0.102527 0.313297 0.580454
0.06333561 0.1245763 0.4516664 0.640597 0.7436353 0.1914214 0.744623 0.531668
0.3587496 -0.006344625 -0.7417713 0.196999 -0.8774174 -0.437413 0.098256 0.679375
0.3587496 0.04599146 -0.7417711 0.780507 0.3404516 -0.5243105 0.098256 0.679375
0.9021983 -0.2789381 -0.3593996 0.05539303 -0.6075437 -0.7923523 0.305349 0.951099
0.9021983 -0.2266017 -0.3593996 -2.010183e-06 0.8944275 -0.447213 0.305349 0.951099
0.3587496 0.04599146 -0.7417711 0.6454419 0.5635237 -0.5156024 0.098256 0.679375
0.9021983 -0.2266017 -0.3593996 0.6454419 0.5635237 -0.5156024 0.305349 0.951099
0.1890257 0.2789381 -0.7417711 0.4291647 0.8787039 -0.2090385 0.098256 0.594513
1 -0.2789379 0.0376479 0.9486834 -0.3162275 0 0.520390 1.000000
1 -0.2266014 -0.08943236 0.5999985 0.8000011 -6.123446e-13 0.451563 1.000000
1 -0.2789379 -0.3593996 0.6666684 -0.6666651 -0.333333 0.305349 1.000000
1 -0.2266014 -0.3593993 0.4082479 0.4082502 -0.8164958 0.305349 1.000000
0.9021983 -0.2789381 0.0376479 -0.5547006 0.0005828505 0.8320498 0.520390 0.951099
0.902198 -0.2266017 0.03761142 -0.2671839 0.5349212 0.8015436 0.520370 0.951099
1 -0.2789379 0.0376479 0.3162267 0.0006628045 0.9486834 0.520390 1.000000
1 -0.2266014 0.03761142 0.534441 0.2677855 0.8016632 0.520370 1.000000
0.9205454 -0.2691198 0.03764093 -0.2672618 -0.5339637 0.8021558 0.520386 0.960273
0.9205454 -0.2364197 0.03761834 -0.5345215 0.267825 0.8015963 0.520374 0.960273
0.9816524 -0.2691196 0.03764093 0.5345238 -0.2666974 0.8019706 0.520386 0.990826
0.9816524 -0.2364197 0.03761834 0.2672595 0.5350813 0.8014116 0.520374 0.990826
0.9205454 -0.2688491 0.4283963 -0.5345212 -0.2667095 0.8019683 0.732020 0.960273
0.9205454 -0.2361493 0.4283738 -0.2672609 0.5350761 0.8014145 0.732008 0.960273
0.9816524 -0.2688491 0.4283963 0.2672627 -0.5339684 0.8021523 0.732020 0.990826
0.9816524 -0.2361493 0.4283738 0.5345232 0.2678131 0.8015991 0.732008 0.990826
0.9378274 -0.2596012 0.42839 -0.2672607 -0.5339696 0.8021522 0.732016 0.968914
0.9378274 -0.2453972 0.4283801 -0.5345225 0.267813 0.8015997 0.732011 0.968914
0.9643707 -0.2596012 0.42839 0.5345227 -0.2667095 0.8019673 0.732016 0.982185
0.9643707 -0.2453972 0.4283801 0.2672619 0.5350752 0.8014148 0.732011 0.982185
0.9378274 -0.2595468 0.507322 -0.8164973 -0.4079652 0.40853 0.774766 0.968914
0.9378274 -0.2453429 0.5073121 -0.3333326 0.6671278 0.6662055 0.774761 0.968914
0.9643707 -0.2595468 0.507322 0.3333341 -0.6662053 0.6671273 0.774766 0.982185
0.9643707 -0.2453429 0.5073121 0.816496 0.4085312 0.4079665 0.774761 0.982185
0.2776944 0.1572402 -0.4111141 0.7856571 0.6141665 0.07444809 0.277340 0.638847
0.1520037 0.08352116 0.5318509 0.5485722 0.8107387 0.2043801 0.788051 0.576002
0.1684581 0.1121529 -0.9231894 0.3897749 0.283987 -0.8760291 0.000000 0.584229
0.2776944 0.1572402 -0.7417711 0.7713209 0.574286 -0.2743351 0.098256 0.638847
0.2445475 0.1377991 -0.1624376 0.6682183 0.7308807 0.1389166 0.412024 0.622274
0.1558791 0.23823 -0.1347016 0.5608127 0.8071535 0.1843705 0.427046 0.577940
0.3256026 0.04599146 -0.187792 0.8823245 0.4537755 0.124865 0.398292 0.662801
0.3256026 -0.006344625 -0.09422517 0.7520552 -0.6524072 0.09369 0.448968 0.662801
-0.1882419 0.07222488 -0.9231894 -0.3700924 -0.4660631 -0.8036273 0.000000 0.405879
-0.3587496 -0.006344625 -0.3447239 -0.4437177 -0.8678568 0.2234707 0.313297 0.320625
0 -0.006344625 -0.3447239 0 -1 0 0.313297 0.500000
0 0.07222488 -0.9231894 0 -0.3574703 -0.9339245 0.000000 0.500000
-0.1882419 0.08499913 -0.9231894 -0.2599582 0.0916311 -0.9612625 0.000000 0.405879
-0.3587493 0.04599146 -0.4718041 -0.6883762 0.7022722 0.1815269 0.244471 0.320625
0 0.08499913 -0.9231894 0 0 -1 0.000000 0.500000
-0.2330588 -0.006344914 0.6051503 -0.7485526 -0.5463635 0.3757072 0.827750 0.383471
0 -0.006344914 0.9231894 1.21057e-08 -0.8608608 0.5088405 1.000000 0.500000
-0.2330586 0.04599146 0.6051507 -0.8282555 0.502162 0.2486488 0.827750 0.383471
0 0.04599146 0.9231894 -3.744589e-08 0.6913766 0.7224947 1.000000 0.500000
-0.9021983 -0.2789381 0.0376479 0.6296734 -0.6386215 0.4423506 0.520390 0.048901
-0.902198 -0.2266017 -0.08943236 0.5249182 0.8442075 0.1085108 0.451563 0.048901
-0.1882419 0.08499913 -0.9231894 0 0 0 0.000000 0.405879
-0.3587493 0.04599146 -0.4718041 -0.4483562 0.893855 5.007124e-07 0.244471 0.320625
-0.902198 -0.2266017 -0.08943236 -0.4483562 0.893855 5.007125e-07 0.451563 0.048901
-0.1468157 0.1418571 -0.9231894 -0.3108447 0.589643 -0.7454507 0.000000 0.426592
-0.1609086 0.2789381 -0.3447236 -0.4480454 0.8881124 0.102527 0.313297 0.419546
0 0.2789381 -0.3447239 0 0.9991512 0.04119519 0.313297 0.500000
0 0.1418571 -0.9231894 0 0.2930682 -0.9560915 0.000000 0.500000
-0.06333561 0.1245763 0.4516664 -0.640597 0.7436353 0.1914214 0.744623 0.468332
0 0.1245763 0.7697053 1.352327e-08 0.9631963 0.2687991 0.916873 0.500000
-0.3587496 -0.006344625 -0.7417713 -0.196999 -0.8774174 -0.437413 0.098256 0.320625
0 -0.006344625 -0.7417713 0 -0.9628799 -0.2699305 0.098256 0.500000
-0.3587496 0.04599146 -0.7417711 -0.780507 0.3404516 -0.5243105 0.098256 0.320625
-0.9021983 -0.2789381 -0.3593996 -0.05539303 -0.6075437 -0.7923523 0.305349 0.048901
-0.9021983 -0.2266017 -0.3593996 2.010183e-06 0.8944275 -0.447213 0.305349 0.048901
-0.3587496 0.04599146 -0.7417711 -0.6454419 0.5635237 -0.5156024 0.098256 0.320625
-0.9021983 -0.2266017 -0.3593996 -0.6454419 0.5635237 -0.5156024 0.305349 0.048901
-0.1890257 0.2789381 -0.7417711 -0.4291647 0.8787039 -0.2090385 0.098256 0.405487
0 0.2789381 -0.7417713 0 0.9069322 -0.4212766 0.098256 0.500000
-1 -0.2789379 0.0376479 -0.9486834 -0.3162275 0 0.520390 0.000000
-1 -0.2266014 -0.08943236 -0.5999985 0.8000011 -6.123446e-13 0.451563 0.000000
-1 -0.2789379 -0.3593996 -0.6666684 -0.6666651 -0.333333 0.305349 0.000000
-1 -0.2266014 -0.3593993 -0.4082479 0.4082502 -0.8164958 0.305349 0.000000
-0.9021983 -0.2789381 0.0376479 0.5547006 0.0005828505 0.8320498 0.520390 0.048901
-0.902198 -0.2266017 0.03761142 0.2671839 0.5349212 0.8015436 0.520370 0.048901
-1 -0.2789379 0.0376479 -0.3162267 0.0006628045 0.9486834 0.520390 0.000000
-1 -0.2266014 0.03761142 -0.534441 0.2677855 0.8016632 0.520370 0.000000
-0.9205454 -0.2691198 0.03764093 0.2672618 -0.5339637 0.8021558 0.520386 0.039727
-0.9205454 -0.2364197 0.03761834 0.5345215 0.267825 0.8015963 0.520374 0.039727
-0.9816524 -0.2691196 0.03764093 -0.5345238 -0.2666974 0.8019706 0.520386 0.009174
-0.9816524 -0.2364197 0.03761834 -0.2672595 0.5350813 0.8014116 0.520374 0.009174
-0.9205454 -0.2688491 0.4283963 0.5345212 -0.2667095 0.8019683 0.732020 0.039727
-0.9205454 -0.2361493 0.4283738 0.2672609 0.5350761 0.8014145 0.732008 0.039727
-0.9816524 -0.2688491 0.4283963 -0.2672627 -0.5339684 0.8021523 0.732020 0.009174
-0.9816524 -0.2361493 0.4283738 -0.5345232 0.2678131 0.8015991 0.732008 0.009174
-0.9378274 -0.2596012 0.42839 0.2672607 -0.5339696 0.8021522 0.732016 0.031086
-0.9378274 -0.2453972 0.4283801 0.5345225 0.267813 0.8015997 0.732011 0.031086
-0.9643707 -0.2596012 0.42839 -0.5345227 -0.2667095 0.8019673 0.732016 0.017815
-0.9643707 -0.2453972 0.4283801 -0.2672619 0.5350752 0.8014148 0.732011 0.017815
-0.9378274 -0.2595468 0.507322 0.8164973 -0.4079652 0.40853 0.774766 0.031086
-0.9378274 -0.2453429 0.5073121 0.3333326 0.6671278 0.6662055 0.774761 0.031086
-0.9643707 -0.2595468 0.507322 -0.3333341 -0.6662053 0.6671273 0.774766 0.017815
-0.9643707 -0.2453429 0.5073121 -0.816496 0.4085312 0.4079665 0.774761 0.017815
0 0.1121529 -0.9231894 0 0 -1 0.000000 0.500000
-0.2776944 0.1572402 -0.4111141 -0.7856571 0.6141665 0.07444809 0.277340 0.361153
-0.1520037 0.08352116 0.5318509 -0.5485722 0.8107387 0.2043801 0.788051 0.423998
-0.1684581 0.1121529 -0.9231894 -0.3897749 0.283987 -0.8760291 0.000000 0.415771
0 0.08352116 0.8498899 0 0.9628302 0.2701077 0.960301 0.500000
-0.2776944 0.1572402 -0.7417711 -0.7713209 0.574286 -0.2743351 0.098256 0.361153
-0.2445475 0.1377991 -0.1624376 -0.6682183 0.7308807 0.1389166 0.412024 0.377726
-0.1558791 0.23823 -0.1347016 -0.5608127 0.8071535 0.1843705 0.427046 0.422060
0 0.2680864 -0.1420712 0 0.9860677 0.1663448 0.423054 0.500000
0 -0.006344625 -0.01035261 0 -1 -2.459937e-07 0.494393 0.500000
-0.3256026 0.04599146 -0.187792 -0.8823245 0.4537755 0.124865 0.398292 0.337199
-0.3256026 -0.006344625 -0.09422517 -0.7520552 -0.6524072 0.09369 0.448968 0.337199
3 14 1 55 
3 14 55 76 
3 48 47 11 
3 48 11 20 
3 16 14 18 
3 16 18 19 
3 47 108 72 
3 47 72 11 
3 4 5 63 
3 4 63 61 
3 2 0 56 
3 2 56 59 
3 117 52 4 
3 117 4 61 
3 52 51 5 
3 52 5 4 
3 16 17 24 
3 16 24 23 
3 3 1 6 
3 3 6 7 
3 18 9 10 
3 18 10 19 
3 0 2 15 
3 0 15 14 
3 15 3 9 
3 15 9 18 
3 3 7 10 
3 3 10 9 
3 20 83 71 
3 20 71 12 
3 49 45 12 
3 49 12 50 
3 0 14 76 
3 0 76 56 
3 45 48 20 
3 45 20 12 
3 1 14 16 
3 1 16 6 
3 7 17 19 
3 7 19 10 
3 2 15 18 
3 2 18 8 
3 11 72 83 
3 11 83 20 
3 23 24 22 
3 23 22 21 
3 6 16 23 
3 6 23 21 
3 22 7 26 
3 22 26 28 
3 17 7 22 
3 17 22 24 
3 28 26 30 
3 28 30 32 
3 7 6 25 
3 7 25 26 
3 21 22 28 
3 21 28 27 
3 6 21 27 
3 6 27 25 
3 32 30 34 
3 32 34 36 
3 26 25 29 
3 26 29 30 
3 27 28 32 
3 27 32 31 
3 25 27 31 
3 25 31 29 
3 36 34 38 
3 36 38 40 
3 29 31 35 
3 29 35 33 
3 30 29 33 
3 30 33 34 
3 31 32 36 
3 31 36 35 
3 40 38 42 
3 40 42 44 
3 34 33 37 
3 34 37 38 
3 35 36 40 
3 35 40 39 
3 33 35 39 
3 33 39 37 
3 42 41 43 
3 42 43 44 
3 39 40 44 
3 39 44 43 
3 37 39 43 
3 37 43 41 
3 38 37 41 
3 38 41 42 
3 15 2 47 
3 15 47 48 
3 2 59 108 
3 2 108 47 
3 63 5 46 
3 63 46 112 
3 51 3 45 
3 51 45 49 
3 3 15 48 
3 3 48 45 
3 1 3 51 
3 1 51 52 
3 5 51 49 
3 5 49 46 
3 55 1 52 
3 55 52 117 
3 12 71 116 
3 12 116 50 
3 75 76 55 
3 75 55 54 
3 113 82 69 
3 113 69 111 
3 78 81 80 
3 78 80 75 
3 111 69 72 
3 111 72 108 
3 60 61 63 
3 60 63 62 
3 57 59 56 
3 57 56 53 
3 117 61 60 
3 117 60 119 
3 119 60 62 
3 119 62 118 
3 78 86 87 
3 78 87 79 
3 58 65 64 
3 58 64 54 
3 80 81 68 
3 80 68 67 
3 53 75 77 
3 53 77 57 
3 77 80 67 
3 77 67 58 
3 58 67 68 
3 58 68 65 
3 82 70 71 
3 82 71 83 
3 114 115 70 
3 114 70 109 
3 53 56 76 
3 53 76 75 
3 109 70 82 
3 109 82 113 
3 54 64 78 
3 54 78 75 
3 65 68 81 
3 65 81 79 
3 57 66 80 
3 57 80 77 
3 69 82 83 
3 69 83 72 
3 86 84 85 
3 86 85 87 
3 64 84 86 
3 64 86 78 
3 85 91 89 
3 85 89 65 
3 79 87 85 
3 79 85 65 
3 91 95 93 
3 91 93 89 
3 65 89 88 
3 65 88 64 
3 84 90 91 
3 84 91 85 
3 64 88 90 
3 64 90 84 
3 95 99 97 
3 95 97 93 
3 89 93 92 
3 89 92 88 
3 90 94 95 
3 90 95 91 
3 88 92 94 
3 88 94 90 
3 99 103 101 
3 99 101 97 
3 92 96 98 
3 92 98 94 
3 93 97 96 
3 93 96 92 
3 94 98 99 
3 94 99 95 
3 103 107 105 
3 103 105 101 
3 97 101 100 
3 97 100 96 
3 98 102 103 
3 98 103 99 
3 96 100 102 
3 96 102 98 
3 105 107 106 
3 105 106 104 
3 102 106 107 
3 102 107 103 
3 100 104 106 
3 100 106 102 
3 101 105 104 
3 101 104 100 
3 77 113 111 
3 77 111 57 
3 57 111 108 
3 57 108 59 
3 63 112 110 
3 63 110 62 
3 118 114 109 
3 118 109 58 
3 58 109 113 
3 58 113 77 
3 54 119 118 
3 54 118 58 
3 62 110 114 
3 62 114 118 
3 55 117 119 
3 55 119 54 
3 70 115 116 
3 70 116 71 
3 50 116 74 
3 50 74 13 
3 112 46 13 
3 112 13 74 
3 46 49 50 
3 46 50 13 
3 115 73 74 
3 115 74 116 
3 112 74 73 
3 112 73 110 
3 110 73 115 
3 110 115 114 
