ply
format ascii 1.0
comment VCGLIB generated
element vertex 120
property float x
property float y
property float z
property float nx
property float ny
property float nz
property float texture_u
property float texture_v
element face 232
property list uchar int vertex_indices
end_header
0.9412095 0.3611244 -4.615947 9.252311 -11.65158 -20.09068 0.000000 0.594121
1.793748 -0.03172312 -1.72362 11.09294 -21.69642 5.586768 0.313297 0.679375
0.9412095 0.4249957 -4.615947 6.498956 2.290778 -24.03156 0.000000 0.594121
1.793746 0.2299573 -2.35902 17.20941 17.55681 4.538173 0.244471 0.679375
1.165294 -0.03172457 3.025751 18.71382 -13.65909 9.392681 0.827750 0.616529
1.165293 0.2299573 3.025753 20.70639 12.55405 6.216221 0.827750 0.616529
4.510992 -1.394691 0.1882395 -15.74184 -15.96554 11.05877 0.520390 0.951099
4.51099 -1.133008 -0.4471618 -13.12296 21.10519 2.71277 0.451563 0.951099
0.9412095 0.4249957 -4.615947 0 0 0 0.000000 0.594121
1.793746 0.2299573 -2.35902 11.20891 22.34638 1.251781e-05 0.244471 0.679375
4.51099 -1.133008 -0.4471618 11.20891 22.34638 1.251781e-05 0.451563 0.951099
0.7340785 0.7092855 -4.615947 7.771118 14.74108 -18.63627 0.000000 0.573408
0.804543 1.394691 -1.723618 11.20114 22.20281 2.563175 0.313297 0.580454
0.316678 0.6228815 2.258332 16.01493 18.59088 4.785535 0.744623 0.531668
1.793748 -0.03172312 -3.708856 4.924975 -21.93544 -10.93533 0.098256 0.679375
1.793748 0.2299573 -3.708856 19.51268 8.511291 -13.10776 0.098256 0.679375
4.510992 -1.394691 -1.796998 1.384826 -15.18859 -19.80881 0.305349 0.951099
4.510992 -1.133008 -1.796998 -5.025458e-05 22.36069 -11.18033 0.305349 0.951099
1.793748 0.2299573 -3.708856 16.13605 14.08809 -12.89006 0.098256 0.679375
4.510992 -1.133008 -1.796998 16.13605 14.08809 -12.89006 0.305349 0.951099
0.9451285 1.394691 -3.708856 10.72912 21.9676 -5.225963 0.098256 0.594513
5 -1.39469 0.1882395 23.71709 -7.905688 0 0.520390 1.000000
5 -1.133007 -0.4471618 14.99996 20.00003 -1.530862e-11 0.451563 1.000000
5 -1.39469 -1.796998 16.66671 -16.66663 -8.333326 0.305349 1.000000
5 -1.133007 -1.796996 10.2062 10.20626 -20.4124 0.305349 1.000000
4.510992 -1.394691 0.1882395 -13.86752 0.01457126 20.80125 0.520390 0.951099
4.51099 -1.133008 0.1880571 -6.679598 13.37303 20.03859 0.520370 0.951099
5 -1.39469 0.1882395 7.905669 0.01657012 23.71709 0.520390 1.000000
5 -1.133007 0.1880571 13.36103 6.694638 20.04158 0.520370 1.000000
4.602727 -1.345599 0.1882046 -6.681546 -13.34909 20.0539 0.520386 0.960273
4.602727 -1.182099 0.1880917 -13.36304 6.695626 20.03991 0.520374 0.960273
4.908262 -1.345598 0.1882046 13.3631 -6.667436 20.04927 0.520386 0.990826
4.908262 -1.182099 0.1880917 6.681488 13.37703 20.03529 0.520374 0.990826
4.602727 -1.344246 2.141982 -13.36303 -6.667738 20.04921 0.732020 0.960273
4.602727 -1.180746 2.141869 -6.681523 13.3769 20.03536 0.732008 0.960273
4.908262 -1.344246 2.141982 6.681569 -13.34921 20.05381 0.732020 0.990826
4.908262 -1.180746 2.141869 13.36308 6.695328 20.03998 0.732008 0.990826
4.689137 -1.298006 2.14195 -6.681518 -13.34924 20.05381 0.732016 0.968914
4.689137 -1.226986 2.141901 -13.36306 6.695325 20.03999 0.732011 0.968914
4.821854 -1.298006 2.14195 13.36307 -6.667738 20.04918 0.732016 0.982185
4.821854 -1.226986 2.141901 6.681548 13.37688 20.03537 0.732011 0.982185
4.689137 -1.297734 2.53661 -20.41243 -10.19913 10.21325 0.774766 0.968914
4.689137 -1.226714 2.536561 -8.333317 16.6782 16.65514 0.774761 0.968914
4.821854 -1.297734 2.53661 8.333354 -16.65513 16.67819 0.774766 0.982185
4.821854 -1.226714 2.536561 20.4124 10.21328 10.19916 0.774761 0.982185
1.388472 0.786201 -2.055571 19.64143 15.35416 1.861202 0.277340 0.638847
0.7600185 0.4176058 2.659254 13.71431 20.26847 5.109503 0.788051 0.576002
0.8422905 0.5607645 -4.615947 9.744373 7.099675 -21.90073 0.000000 0.584229
1.388472 0.786201 -3.708856 19.28302 14.35715 -6.858377 0.098256 0.638847
1.222738 0.6889955 -0.812188 16.70546 18.27202 3.472915 0.412024 0.622274
0.7793955 1.19115 -0.673508 14.02032 20.17884 4.609263 0.427046 0.577940
1.628013 0.2299573 -0.93896 22.05812 11.34439 3.121625 0.398292 0.662801
1.628013 -0.03172312 -0.4711258 18.80138 -16.31018 2.34225 0.448968 0.662801
-0.9412095 0.3611244 -4.615947 -9.252311 -11.65158 -20.09068 0.000000 0.405879
-1.793748 -0.03172312 -1.72362 -11.09294 -21.69642 5.586768 0.313297 0.320625
0 -0.03172312 -1.72362 0 -25 0 0.313297 0.500000
0 0.3611244 -4.615947 0 -8.936758 -23.34811 0.000000 0.500000
-0.9412095 0.4249957 -4.615947 -6.498956 2.290778 -24.03156 0.000000 0.405879
-1.793746 0.2299573 -2.35902 -17.20941 17.55681 4.538173 0.244471 0.320625
0 0.4249957 -4.615947 0 0 -25 0.000000 0.500000
-1.165294 -0.03172457 3.025751 -18.71382 -13.65909 9.392681 0.827750 0.383471
0 -0.03172457 4.615947 3.026425e-07 -21.52152 12.72101 1.000000 0.500000
-1.165293 0.2299573 3.025753 -20.70639 12.55405 6.216221 0.827750 0.383471
0 0.2299573 4.615947 -9.361472e-07 17.28442 18.06237 1.000000 0.500000
-4.510992 -1.394691 0.1882395 15.74184 -15.96554 11.05877 0.520390 0.048901
-4.51099 -1.133008 -0.4471618 13.12296 21.10519 2.71277 0.451563 0.048901
-0.9412095 0.4249957 -4.615947 0 0 0 0.000000 0.405879
-1.793746 0.2299573 -2.35902 -11.20891 22.34638 1.251781e-05 0.244471 0.320625
-4.51099 -1.133008 -0.4471618 -11.20891 22.34638 1.251781e-05 0.451563 0.048901
-0.7340785 0.7092855 -4.615947 -7.771118 14.74108 -18.63627 0.000000 0.426592
-0.804543 1.394691 -1.723618 -11.20114 22.20281 2.563175 0.313297 0.419546
0 1.394691 -1.72362 0 24.97878 1.02988 0.313297 0.500000
0 0.7092855 -4.615947 0 7.326705 -23.90229 0.000000 0.500000
-0.316678 0.6228815 2.258332 -16.01493 18.59088 4.785535 0.744623 0.468332
0 0.6228815 3.848526 3.380818e-07 24.07991 6.719978 0.916873 0.500000
-1.793748 -0.03172312 -3.708856 -4.924975 -21.93544 -10.93533 0.098256 0.320625
0 -0.03172312 -3.708856 0 -24.072 -6.748263 0.098256 0.500000
-1.793748 0.2299573 -3.708856 -19.51268 8.511291 -13.10776 0.098256 0.320625
-4.510992 -1.394691 -1.796998 -1.384826 -15.18859 -19.80881 0.305349 0.048901
-4.510992 -1.133008 -1.796998 5.025458e-05 22.36069 -11.18033 0.305349 0.048901
-1.793748 0.2299573 -3.708856 -16.13605 14.08809 -12.89006 0.098256 0.320625
-4.510992 -1.133008 -1.796998 -16.13605 14.08809 -12.89006 0.305349 0.048901
-0.9451285 1.394691 -3.708856 -10.72912 21.9676 -5.225963 0.098256 0.405487
0 1.394691 -3.708856 0 22.67331 -10.53192 0.098256 0.500000
-5 -1.39469 0.1882395 -23.71709 -7.905688 0 0.520390 0.000000
-5 -1.133007 -0.4471618 -14.99996 20.00003 -1.530862e-11 0.451563 0.000000
-5 -1.39469 -1.796998 -16.66671 -16.66663 -8.333326 0.305349 0.000000
-5 -1.133007 -1.796996 -10.2062 10.20626 -20.4124 0.305349 0.000000
-4.510992 -1.394691 0.1882395 13.86752 0.01457126 20.80125 0.520390 0.048901
-4.51099 -1.133008 0.1880571 6.679598 13.37303 20.03859 0.520370 0.048901
-5 -1.39469 0.1882395 -7.905669 0.01657012 23.71709 0.520390 0.000000
-5 -1.133007 0.1880571 -13.36103 6.694638 20.04158 0.520370 0.000000
-4.602727 -1.345599 0.1882046 6.681546 -13.34909 20.0539 0.520386 0.039727
-4.602727 -1.182099 0.1880917 13.36304 6.695626 20.03991 0.520374 0.039727
-4.908262 -1.345598 0.1882046 -13.3631 -6.667436 20.04927 0.520386 0.009174
-4.908262 -1.182099 0.1880917 -6.681488 13.37703 20.03529 0.520374 0.009174
-4.602727 -1.344246 2.141982 13.36303 -6.667738 20.04921 0.732020 0.039727
-4.602727 -1.180746 2.141869 6.681523 13.3769 20.03536 0.732008 0.039727
-4.908262 -1.344246 2.141982 -6.681569 -13.34921 20.05381 0.732020 0.009174
-4.908262 -1.180746 2.141869 -13.36308 6.695328 20.03998 0.732008 0.009174
-4.689137 -1.298006 2.14195 6.681518 -13.34924 20.05381 0.732016 0.031086
-4.689137 -1.226986 2.141901 13.36306 6.695325 20.03999 0.732011 0.031086
-4.821854 -1.298006 2.14195 -13.36307 -6.667738 20.04918 0.732016 0.017815
-4.821854 -1.226986 2.141901 -6.681548 13.37688 20.03537 0.732011 0.017815
-4.689137 -1.297734 2.53661 20.41243 -10.19913 10.21325 0.774766 0.031086
-4.689137 -1.226714 2.536561 8.333317 16.6782 16.65514 0.774761 0.031086
-4.821854 -1.297734 2.53661 -8.333354 -16.65513 16.67819 0.774766 0.017815
-4.821854 -1.226714 2.536561 -20.4124 10.21328 10.19916 0.774761 0.017815
0 0.5607645 -4.615947 0 0 -25 0.000000 0.500000
-1.388472 0.786201 -2.055571 -19.64143 15.35416 1.861202 0.277340 0.361153
-0.7600185 0.4176058 2.659254 -13.71431 20.26847 5.109503 0.788051 0.423998
-0.8422905 0.5607645 -4.615947 -9.744373 7.099675 -21.90073 0.000000 0.415771
0 0.4176058 4.249449 0 24.07076 6.752693 0.960301 0.500000
-1.388472 0.786201 -3.708856 -19.28302 14.35715 -6.858377 0.098256 0.361153
-1.222738 0.6889955 -0.812188 -16.70546 18.27202 3.472915 0.412024 0.377726
-0.7793955 1.19115 -0.673508 -14.02032 20.17884 4.609263 0.427046 0.422060
0 1.340432 -0.710356 0 24.6517 4.15862 0.423054 0.500000
0 -0.03172312 -0.05176305 0 -25 -6.149843e-06 0.494393 0.500000
-1.628013 0.2299573 -0.93896 -22.05812 11.34439 3.121625 0.398292 0.337199
-1.628013 -0.03172312 -0.4711258 -18.80138 -16.31018 2.34225 0.448968 0.337199
3 14 1 55 
3 14 55 76 
3 48 47 11 
3 48 11 20 
3 16 14 18 
3 16 18 19 
3 47 108 72 
3 47 72 11 
3 4 5 63 
3 4 63 61 
3 2 0 56 
3 2 56 59 
3 117 52 4 
3 117 4 61 
3 52 51 5 
3 52 5 4 
3 16 17 24 
3 16 24 23 
3 3 1 6 
3 3 6 7 
3 18 9 10 
3 18 10 19 
3 0 2 15 
3 0 15 14 
3 15 3 9 
3 15 9 18 
3 3 7 10 
3 3 10 9 
3 20 83 71 
3 20 71 12 
3 49 45 12 
3 49 12 50 
3 0 14 76 
3 0 76 56 
3 45 48 20 
3 45 20 12 
3 1 14 16 
3 1 16 6 
3 7 17 19 
3 7 19 10 
3 2 15 18 
3 2 18 8 
3 11 72 83 
3 11 83 20 
3 23 24 22 
3 23 22 21 
3 6 16 23 
3 6 23 21 
3 22 7 26 
3 22 26 28 
3 17 7 22 
3 17 22 24 
3 28 26 30 
3 28 30 32 
3 7 6 25 
3 7 25 26 
3 21 22 28 
3 21 28 27 
3 6 21 27 
3 6 27 25 
3 32 30 34 
3 32 34 36 
3 26 25 29 
3 26 29 30 
3 27 28 32 
3 27 32 31 
3 25 27 31 
3 25 31 29 
3 36 34 38 
3 36 38 40 
3 29 31 35 
3 29 35 33 
3 30 29 33 
3 30 33 34 
3 31 32 36 
3 31 36 35 
3 40 38 42 
3 40 42 44 
3 34 33 37 
3 34 37 38 
3 35 36 40 
3 35 40 39 
3 33 35 39 
3 33 39 37 
3 42 41 43 
3 42 43 44 
3 39 40 44 
3 39 44 43 
3 37 39 43 
3 37 43 41 
3 38 37 41 
3 38 41 42 
3 15 2 47 
3 15 47 48 
3 2 59 108 
3 2 108 47 
3 63 5 46 
3 63 46 112 
3 51 3 45 
3 51 45 49 
3 3 15 48 
3 3 48 45 
3 1 3 51 
3 1 51 52 
3 5 51 49 
3 5 49 46 
3 55 1 52 
3 55 52 117 
3 12 71 116 
3 12 116 50 
3 75 76 55 
3 75 55 54 
3 113 82 69 
3 113 69 111 
3 78 81 80 
3 78 80 75 
3 111 69 72 
3 111 72 108 
3 60 61 63 
3 60 63 62 
3 57 59 56 
3 57 56 53 
3 117 61 60 
3 117 60 119 
3 119 60 62 
3 119 62 118 
3 78 86 87 
3 78 87 79 
3 58 65 64 
3 58 64 54 
3 80 81 68 
3 80 68 67 
3 53 75 77 
3 53 77 57 
3 77 80 67 
3 77 67 58 
3 58 67 68 
3 58 68 65 
3 82 70 71 
3 82 71 83 
3 114 115 70 
3 114 70 109 
3 53 56 76 
3 53 76 75 
3 109 70 82 
3 109 82 113 
3 54 64 78 
3 54 78 75 
3 65 68 81 
3 65 81 79 
3 57 66 80 
3 57 80 77 
3 69 82 83 
3 69 83 72 
3 86 84 85 
3 86 85 87 
3 64 84 86 
3 64 86 78 
3 85 91 89 
3 85 89 65 
3 79 87 85 
3 79 85 65 
3 91 95 93 
3 91 93 89 
3 65 89 88 
3 65 88 64 
3 84 90 91 
3 84 91 85 
3 64 88 90 
3 64 90 84 
3 95 99 97 
3 95 97 93 
3 89 93 92 
3 89 92 88 
3 90 94 95 
3 90 95 91 
3 88 92 94 
3 88 94 90 
3 99 103 101 
3 99 101 97 
3 92 96 98 
3 92 98 94 
3 93 97 96 
3 93 96 92 
3 94 98 99 
3 94 99 95 
3 103 107 105 
3 103 105 101 
3 97 101 100 
3 97 100 96 
3 98 102 103 
3 98 103 99 
3 96 100 102 
3 96 102 98 
3 105 107 106 
3 105 106 104 
3 102 106 107 
3 102 107 103 
3 100 104 106 
3 100 106 102 
3 101 105 104 
3 101 104 100 
3 77 113 111 
3 77 111 57 
3 57 111 108 
3 57 108 59 
3 63 112 110 
3 63 110 62 
3 118 114 109 
3 118 109 58 
3 58 109 113 
3 58 113 77 
3 54 119 118 
3 54 118 58 
3 62 110 114 
3 62 114 118 
3 55 117 119 
3 55 119 54 
3 70 115 116 
3 70 116 71 
3 50 116 74 
3 50 74 13 
3 112 46 13 
3 112 13 74 
3 46 49 50 
3 46 50 13 
3 115 73 74 
3 115 74 116 
3 112 74 73 
3 112 73 110 
3 110 73 115 
3 110 115 114 
